# xmcd
#
# Track frame offsets: 
#        183
#        9580
#        21220
#        34950
#        48200
#        63385
#        75520
#        87213
#        99943
#        110673
#        122933
#        136755
#        150278
#        161040
#        174025
#        183348
#        192378
#        204963
#        213275
#        221978
#
# Disc length: 3116 seconds
#
# Revision: 5
# Processed by: cddbd v1.5.1PL2 Copyright (c) Steve Scherf et al.
# Submitted via: ExactAudioCopy v0.90b4
#
DISCID=040c2a14
DTITLE=Various Artist - Rhythm and Blues Originals [CD1]
DYEAR=1989
DGENRE=Rhythm and Blues 
TTITLE0=James Brown - Papa's Got A Brand New Bag
TTITLE1=Wilson Pickett - If You Need Me
TTITLE2=Eddy Floyd - Knock On Wood
TTITLE3=Percy Sledge - When A Man Loves A Woman
TTITLE4=George McCrae - Rock Your Baby
TTITLE5=James Brown - It's A Man's Man's World
TTITLE6=Sam and Dave - Soul Man
TTITLE7=Fontella Bass - Rescue Me
TTITLE8=Lloyd Price - Stagger Lee
TTITLE9=Billy Stewart - Summertime
TTITLE10=James Brown - Cold Sweat
TTITLE11=Percy Sledge - My Special Prayer
TTITLE12=Lee Dorsey - Ya Ya
TTITLE13=Mary Wells - My Guy
TTITLE14=The Dixie Cups - Iko Iko
TTITLE15=The Shirelles - Dedicated To The One I Love
TTITLE16=Nina Simone - Don't Let Me Be Misunderstood
TTITLE17=The Chiffons - He's So Fine
TTITLE18=Sam Cooke - Only Sixteen
TTITLE19=Ben E King and The Drifters - Under The Boardwalk
EXTD=
EXTT0=
EXTT1=
EXTT2=
EXTT3=
EXTT4=
EXTT5=
EXTT6=
EXTT7=
EXTT8=
EXTT9=
EXTT10=
EXTT11=
EXTT12=
EXTT13=
EXTT14=
EXTT15=
EXTT16=
EXTT17=
EXTT18=
EXTT19=
PLAYORDER=
